<svg xmlns="http://www.w3.org/2000/svg" xmlns:xlink="http://www.w3.org/1999/xlink" viewBox="0 0 707.94 111.88"><defs><style>.cls-1{fill:gray;}.cls-2{fill:none;stroke:gray;stroke-miterlimit:10;}.cls-3{fill:url(#新規グラデーションスウォッチ_15);}</style><linearGradient id="新規グラデーションスウォッチ_15" x1="1.15" y1="72.48" x2="706.49" y2="72.48" gradientUnits="userSpaceOnUse"><stop offset="0" stop-color="#999"/><stop offset="0.7" stop-color="#333"/><stop offset="1" stop-color="#666"/></linearGradient></defs><title>アセット 10</title><g id="レイヤー_2" data-name="レイヤー 2"><g id="レイヤー_1-2" data-name="レイヤー 1"><path class="cls-1" d="M78.52,8.24a39.29,39.29,0,0,0,5.12-2,6.41,6.41,0,0,0,2.25-1.51,11.57,11.57,0,0,1,1.74,1.89A.59.59,0,0,1,87.8,7c0,.17-.1.31-.36.38A11,11,0,0,0,85.7,8a56.12,56.12,0,0,1-7.2,2.6v2.8c0,1,.15,1.32.69,1.49a11.21,11.21,0,0,0,2.65.23,37.72,37.72,0,0,0,5.92-.48c.31-.05.36,0,.38.29.06.59.12,1.38.12,1.83,0,.27-.12.35-.44.37a41.13,41.13,0,0,1-6.23.38,10.28,10.28,0,0,1-4-.57c-1-.44-1.49-1.42-1.49-3.14V6.08a22.55,22.55,0,0,0-.21-3.84,17.22,17.22,0,0,1,2.64.42c.25.06.34.18.34.33a.93.93,0,0,1-.15.44,4.78,4.78,0,0,0-.21,1.89ZM87.3,2.17c.1-.08.19-.06.31.05a9.68,9.68,0,0,1,2,2.24.22.22,0,0,1-.07.34l-.88.65a.22.22,0,0,1-.35-.07A10.68,10.68,0,0,0,86.19,3ZM89.17.81c.12-.09.18-.07.31,0a9,9,0,0,1,2,2.16.25.25,0,0,1-.07.38L90.57,4A.21.21,0,0,1,90.22,4a10.22,10.22,0,0,0-2.1-2.42Z"/><path class="cls-1" d="M105.84,3.56a3,3,0,0,0,1.45-.19.36.36,0,0,1,.23-.08.72.72,0,0,1,.36.16,8,8,0,0,1,1.36,1.47.53.53,0,0,1,.11.28.61.61,0,0,1-.28.42,3.79,3.79,0,0,0-.77.92,32.75,32.75,0,0,1-2.69,3.93,49,49,0,0,1,5.82,5.08.47.47,0,0,1,.16.29.54.54,0,0,1-.14.32A11.79,11.79,0,0,1,110,17.58a.34.34,0,0,1-.25.13.43.43,0,0,1-.3-.17A38.37,38.37,0,0,0,104,12.33,30.31,30.31,0,0,1,97,17.88a1.39,1.39,0,0,1-.48.17.5.5,0,0,1-.36-.19,5.75,5.75,0,0,0-1.76-1.37,25.78,25.78,0,0,0,7.39-5.35,26.45,26.45,0,0,0,4-5.27l-5.42,0c-1.09,0-2.19,0-3.32.12-.17,0-.23-.12-.27-.35a11.8,11.8,0,0,1-.19-2.19c1.13.09,2.18.09,3.55.09Zm3.55-2.14c.1-.09.19-.07.31,0a9.54,9.54,0,0,1,2,2.25.21.21,0,0,1-.06.33l-.89.65a.21.21,0,0,1-.35-.06,10.5,10.5,0,0,0-2.12-2.44ZM111.26.05c.12-.08.19-.06.31,0a8.67,8.67,0,0,1,2,2.17.24.24,0,0,1-.07.37l-.84.66a.21.21,0,0,1-.35-.07,10,10,0,0,0-2.1-2.41Z"/><path class="cls-1" d="M119.2,4.65A14.3,14.3,0,0,0,119,1.58a16,16,0,0,1,2.6.45c.25.06.36.19.36.33a.77.77,0,0,1-.09.32,4.8,4.8,0,0,0-.23,2V8.91c0,1.09,0,1.91.07,2.65,0,.31-.13.42-.47.42h-1.68c-.29,0-.42-.11-.39-.36,0-.73.06-1.95.06-2.85Zm9.89,3.93c0,3.1-.46,5.18-1.7,6.84a10.82,10.82,0,0,1-4.62,3.3,1.42,1.42,0,0,1-.44.1.68.68,0,0,1-.51-.25A7,7,0,0,0,120,17.29a10.22,10.22,0,0,0,5.12-3.07c1-1.19,1.41-2.93,1.41-5.6v-4a15.29,15.29,0,0,0-.23-3.42,13,13,0,0,1,2.73.46.35.35,0,0,1,.29.36.67.67,0,0,1-.08.33,6.3,6.3,0,0,0-.19,2.29Z"/><path class="cls-1" d="M139.48,11.31a16.91,16.91,0,0,0-3.08.25.46.46,0,0,1-.48-.44,20.78,20.78,0,0,1-.32-2.54,27.11,27.11,0,0,0,4.54.25h6.76c1.59,0,3.21,0,4.83-.06.31,0,.37,0,.37.29a13,13,0,0,1,0,2c0,.26-.08.34-.37.32-1.58,0-3.13,0-4.69,0Z"/><path class="cls-1" d="M164.58,8.16c0-.68,0-1.52,0-2.12,0-.28,0-.55-.11-1a46.72,46.72,0,0,1-5,.67c-.32,0-.44-.23-.53-.46a5.65,5.65,0,0,0-1.07-1.45,38.93,38.93,0,0,0,6.24-.78,25.37,25.37,0,0,0,3.46-.9,6.35,6.35,0,0,0,1.81-.94,10.28,10.28,0,0,1,1.72,1.47.78.78,0,0,1,.27.58c0,.24-.21.28-.55.3a12.94,12.94,0,0,0-1.32.36c-1.28.35-2.56.67-3.8.92a6.48,6.48,0,0,1,1.37.27.32.32,0,0,1,.27.3.9.9,0,0,1-.13.35,2.13,2.13,0,0,0-.14.72c0,.46,0,.94,0,1.65h2.6c1.32,0,3.11-.1,4.05-.14.21,0,.21.1.23.33a15.68,15.68,0,0,1,0,1.68c0,.3,0,.38-.27.38-1.32,0-2.54-.06-4.07-.06H167a11.24,11.24,0,0,1-1.05,4.22,10,10,0,0,1-3.34,3.93.65.65,0,0,1-.35.14.83.83,0,0,1-.38-.12,8.8,8.8,0,0,0-2.22-.8,9.32,9.32,0,0,0,3.92-3.89,8.51,8.51,0,0,0,.92-3.48h-3.73c-.76,0-2.31,0-3.34.08-.27,0-.34-.14-.4-.48A9.65,9.65,0,0,1,156.81,8c1.49.12,3,.15,4.07.15Z"/><path class="cls-1" d="M184.09,1.4c.25.06.38.16.38.33s-.15.59-.15.88.06.93.1,1.41a28.21,28.21,0,0,0,.68,3.61l3-1.59a5.31,5.31,0,0,0,1.45-1.14,10.84,10.84,0,0,1,1.53,2,.86.86,0,0,1,.15.44c0,.21-.13.37-.42.42a9.35,9.35,0,0,0-2,.63,28.68,28.68,0,0,0-4.93,2.45C182,12,181.36,13,181.36,14c0,1.24.92,1.77,3.34,1.77a36,36,0,0,0,6.4-.49c.23,0,.34,0,.38.26a19.1,19.1,0,0,1,.21,2c0,.23-.13.33-.38.36a45.27,45.27,0,0,1-6.26.31c-4,0-6.06-1.3-6.06-4,0-2.33,1.53-3.86,4-5.42a31,31,0,0,1-1.1-5.12,9.32,9.32,0,0,0-.54-2.44A12.07,12.07,0,0,1,184.09,1.4Z"/><path class="cls-1" d="M201,2.15c.23.13.32.25.32.42a1,1,0,0,1-.15.46,4.39,4.39,0,0,0-.38,1.16,42,42,0,0,0-1.05,7.64c0,.84,0,1.81.07,2.69.42-1,.86-1.87,1.3-2.92a5.43,5.43,0,0,0,.73,1.32.44.44,0,0,1,.13.3.56.56,0,0,1-.13.33,12.9,12.9,0,0,0-1.07,3.19,4.21,4.21,0,0,0,0,1.12c0,.14-.06.21-.25.27a9.07,9.07,0,0,1-1.58.36c-.23.06-.31,0-.42-.26a19.73,19.73,0,0,1-.9-6.4,45.84,45.84,0,0,1,.86-8,10.42,10.42,0,0,0,.15-2.47A16.42,16.42,0,0,1,201,2.15Zm7.23,5.61c-1.43,0-2.9.08-4.33,0-.27,0-.36-.07-.38-.28a13.45,13.45,0,0,1-.14-1.91,30.52,30.52,0,0,0,4.78.07c0-.76,0-1.43,0-2.21a8.63,8.63,0,0,0-.27-2.06,11.93,11.93,0,0,1,2.54.4c.23.07.38.17.38.36a.82.82,0,0,1-.13.36,2.45,2.45,0,0,0-.17.73c0,.72,0,1.26,0,2.23,1-.09,2.08-.23,3-.38.26-.06.3,0,.34.25a8.79,8.79,0,0,1,.13,1.49c0,.19-.09.3-.24.32a24.32,24.32,0,0,1-3.23.44c0,2.35,0,3.82.15,5.62a13.91,13.91,0,0,1,3.48,2c.19.13.21.19.11.42a11,11,0,0,1-1,1.62.24.24,0,0,1-.19.12.32.32,0,0,1-.19-.1,12.18,12.18,0,0,0-2.26-1.68c-.17,1.76-1.37,2.73-3.85,2.73S203,17.16,203,15.36s1.55-3,3.67-3a8.32,8.32,0,0,1,1.68.17C208.26,11,208.24,9.42,208.22,7.76Zm-1.7,6.53c-1,0-1.58.35-1.58,1s.46,1,1.7,1c1.05,0,1.72-.6,1.72-1.36a3.1,3.1,0,0,0,0-.42A5.82,5.82,0,0,0,206.52,14.29Z"/><line class="cls-2" y1="10.1" x2="65.32" y2="10.1"/><line class="cls-2" x1="224.43" y1="10.1" x2="289.75" y2="10.1"/><path class="cls-3" d="M400.79,79.39h36l5.28-14.94h-36L411.52,49h40.91L457.7,34h-76l-.52,1.48h9.07L351.15,91.12h-.21l.55-55.63.05-1.48H330.3l-.52,1.48h5.69l-.29,24.13L313.05,91h-.21l.61-55.53,0-1.48H289.42l-.52,1.48h8.64l-.81,76.39h3.06L335.07,62h.21l-.3,49.84H338l54-76.39h7.52l-26.41,74.88h58.14l5.27-14.94H395.13Zm286,16-5.27,14.94H623.42l1.29-3.67c-1.65,1-3.65,2.32-4,2.52a12.93,12.93,0,0,1-2.08.9,16.53,16.53,0,0,1-2.87.7,24.27,24.27,0,0,1-3.89.27,17.29,17.29,0,0,1-6.73-1.07,6.4,6.4,0,0,1-3.43-3.16,9.84,9.84,0,0,1-.7-5.13,41.43,41.43,0,0,1,1.38-7.11l2.68-9.73c1-3.56,1.24-6.34.81-8.34a7.25,7.25,0,0,0-2.47-4.38,8.17,8.17,0,0,0-4.17-1.66,37.4,37.4,0,0,0-4.18-.27h-10.7l-13.61,38.6h11.87l-.54,1.53H525.33l-.42-10.18H498.37l-7.49,10.18H463.81L522.68,34h25.13l4.93,74.83h7.32l25.79-73.13H574l.53-1.5h20.32c.85,0,1.71,0,2.58-.05s1.74-.09,2.62-.16,1.72,0,2.59-.06,1.73,0,2.58,0a74.05,74.05,0,0,1,10.88.69,12.46,12.46,0,0,1,7.57,4,10.48,10.48,0,0,1,3,6.53,16.72,16.72,0,0,1-.86,6.84,26,26,0,0,1-2,4.12,22.88,22.88,0,0,1-4.38,5.13A31.61,31.61,0,0,1,611.94,66,34.17,34.17,0,0,1,601,69l-.07.21c1.09.15,2.54.42,4.37.81a20,20,0,0,1,5.29,2,13.56,13.56,0,0,1,4.31,3.69,8.68,8.68,0,0,1,1.54,5.94,24.55,24.55,0,0,1-.81,4.86q-.69,2.73-1.55,5.62t-1.64,5.56a27.88,27.88,0,0,0-1,4.49,13.11,13.11,0,0,0,.26,5c.39,1.5,1.63,2.25,3.69,2.25a11.17,11.17,0,0,0,3.08-.54c1.81-.52,5.13-2.73,6.93-4l25-70.84h57.59L702.67,49h-40.9l-5.47,15.5h36L687,79.39H651l-5.65,16ZM525,82.21l-.44-18.41L511.1,82.21ZM600.45,68a14.75,14.75,0,0,0,5.14-2.62,20.27,20.27,0,0,0,4.52-5.08,38.2,38.2,0,0,0,3.83-8.13c1.31-3.7,1.88-6.68,1.71-8.92a7.86,7.86,0,0,0-2-5.08,8.25,8.25,0,0,0-4.34-2.25,27.75,27.75,0,0,0-5.42-.53c-1.29,0-2.59,0-3.92,0a31.48,31.48,0,0,0-3.47.27l-11.65,33h9.84A21.46,21.46,0,0,0,600.45,68ZM1.82,34H28.35l-1.8,36.38,24.84-36.6H73.26l-.36,36.6L96.15,34h26.1L71.16,110.34H49.06l-.34-37.69-26.3,37.69H.33Zm89.37,74.84h12l25.26-73.34h-12L117,34h34.88l-.52,1.5h-12l-12,34.95h36.07l12-34.95h-12l.52-1.5h34.87l-.52,1.5h-12l-25.25,73.34h12l-.52,1.51H137.57l.52-1.51h12L162.81,72H126.74L114,108.83h12l-.52,1.51H90.67Zm91.63-36.67.08-.22c7.35-21.36,30.23-38.85,53.41-38.85s33.87,17.28,26.52,38.64l-.08.21c-7.35,21.36-30.23,38.86-53.41,38.86S175.47,93.52,182.82,72.16Zm62.58,0,.07-.22c4.44-12.88-1.31-23.61-14.62-23.61s-26.16,10.52-30.6,23.4l-.07.21c-4.44,12.88,1.31,23.61,14.62,23.61S241,85,245.4,72.16Z"/></g></g></svg>