<svg xmlns="http://www.w3.org/2000/svg" viewBox="0 0 340 27.47"><defs><style>.cls-1{fill:#333;}</style></defs><title>アセット 25</title><g id="レイヤー_2" data-name="レイヤー 2"><g id="レイヤー_1-2" data-name="レイヤー 1"><path class="cls-1" d="M0,6.53H12.31c4.8,0,8,1.35,8,5.23A4.44,4.44,0,0,1,18,16a5.48,5.48,0,0,1,3.14,5c0,3.85-3.06,5.93-8,5.93H0ZM12.56,14.6c2.61,0,3.77-.65,3.77-2.36s-1.16-2.39-3.77-2.39H4V14.6Zm.11,9c2.53,0,4.44-.51,4.44-2.92,0-2.14-1.74-2.81-4.44-2.81H4v5.73Z"/><path class="cls-1" d="M30.72,6.53h4V27h-4Z"/><path class="cls-1" d="M43.46,27V25L57.73,10H44.19V6.53H63.64V8.78L49.75,23.54H64V27Z"/><path class="cls-1" d="M73.09,6.53H85.37c4.83,0,8.32,1.1,8.32,6.1a5.79,5.79,0,0,1-5.71,6L94.25,27H89.33l-5.93-8H77.08v8h-4Zm11.69,9.08c3.26,0,4.92-.48,4.92-2.89S88,9.85,84.78,9.85h-7.7v5.76Z"/><path class="cls-1" d="M103.19,6.53h18.32V10H107.18v4.75h12.33v3.43H107.18v5.4h14.67V27H103.19Z"/><path class="cls-1" d="M138.11,6.53h4.55L152.58,27h-4.21l-2.14-4.69H134.46L132.3,27h-4.25Zm6.55,12.31-4.27-9.1-4.27,9.1Z"/><path class="cls-1" d="M180.53,19.69c-.4,2.27-2,7.78-11.41,7.78-6.47,0-11.55-3.6-11.55-11,0-6,3.73-10.4,11.86-10.4,9.13,0,10.48,5.93,10.79,7h-4c-.23-.7-1.8-3.59-6.58-3.59-5.65,0-8,3.17-8,7.42,0,4.69,3.4,7.16,7.79,7.16,4.66,0,6.71-2.78,7.11-4.35Z"/><path class="cls-1" d="M208.44,0V6.13H193.57V0h-4V27h4V20.84h14.87V27h4V0Zm0,9.07V12H193.57V9.07Zm-14.87,8.82V15h14.87v2.94Z"/><path class="cls-1" d="M229,11.45h4.51a4.11,4.11,0,0,1,2.92,1,3.08,3.08,0,0,1,.84,2.18v0a3.05,3.05,0,0,1-2.4,3.07l2.73,3.82h-2.11L233,18h-2.22v3.52H229Zm4.38,5c1.27,0,2.08-.66,2.08-1.69v0c0-1.08-.78-1.67-2.09-1.67h-2.59v3.39Z"/><path class="cls-1" d="M240.07,11.45h7.5V13h-5.72v2.63h5.07v1.6h-5.07V20h5.79v1.58h-7.57Z"/><path class="cls-1" d="M249.82,16.54v0a5.11,5.11,0,0,1,5.2-5.23,5.29,5.29,0,0,1,4,1.57l-1.14,1.32A4.06,4.06,0,0,0,255,12.92a3.4,3.4,0,0,0-3.32,3.56v0A3.4,3.4,0,0,0,255,20.09a3.93,3.93,0,0,0,2.9-1.3L259.06,20a5.23,5.23,0,0,1-4.1,1.79A5.08,5.08,0,0,1,249.82,16.54Z"/><path class="cls-1" d="M261.52,11.45H266a4.09,4.09,0,0,1,2.92,1,3,3,0,0,1,.84,2.18v0a3.05,3.05,0,0,1-2.4,3.07l2.73,3.82H268L265.52,18h-2.23v3.52h-1.77Zm4.37,5c1.28,0,2.08-.66,2.08-1.69v0c0-1.08-.78-1.67-2.09-1.67h-2.59v3.39Z"/><path class="cls-1" d="M272.33,17.27V11.45h1.78V17.2c0,1.88,1,2.88,2.56,2.88s2.54-.94,2.54-2.81V11.45H281v5.74c0,3-1.71,4.53-4.35,4.53S272.33,20.21,272.33,17.27Z"/><path class="cls-1" d="M284,11.45h1.78V21.56H284Z"/><path class="cls-1" d="M291.42,13.1H288.2V11.45h8.22V13.1H293.2v8.46h-1.78Z"/><path class="cls-1" d="M303,20.16l3.48-3c1.38-1.18,1.9-1.82,1.9-2.73a1.53,1.53,0,0,0-1.64-1.58c-.92,0-1.56.51-2.32,1.52l-1.28-1a4.16,4.16,0,0,1,3.73-2.11,3,3,0,0,1,3.34,3v0c0,1.61-.84,2.46-2.63,3.92L305.53,20h4.81v1.56H303Z"/><path class="cls-1" d="M312.15,16.54v0c0-2.89,1.76-5.23,4.42-5.23s4.39,2.31,4.39,5.2v0c0,2.89-1.76,5.23-4.42,5.23S312.15,19.43,312.15,16.54Zm7,0v0c0-2-1-3.63-2.59-3.63s-2.55,1.6-2.55,3.6v0c0,2,1,3.62,2.58,3.62S319.13,18.52,319.13,16.54Z"/><path class="cls-1" d="M322.35,20.16l3.49-3c1.37-1.18,1.89-1.82,1.89-2.73a1.53,1.53,0,0,0-1.63-1.58c-.93,0-1.56.51-2.33,1.52l-1.27-1a4.15,4.15,0,0,1,3.73-2.11,3,3,0,0,1,3.33,3v0c0,1.61-.83,2.46-2.63,3.92L324.85,20h4.82v1.56h-7.32Z"/><path class="cls-1" d="M331.19,16.54v0c0-2.89,1.76-5.23,4.42-5.23s4.39,2.31,4.39,5.2v0c0,2.89-1.76,5.23-4.42,5.23S331.19,19.43,331.19,16.54Zm7,0v0c0-2-1-3.63-2.59-3.63s-2.56,1.6-2.56,3.6v0c0,2,1,3.62,2.59,3.62S338.17,18.52,338.17,16.54Z"/></g></g></svg>