<svg xmlns="http://www.w3.org/2000/svg" viewBox="0 0 479.1 50"><defs><style>.cls-1{fill:#333;}</style></defs><title>アセット 13</title><g id="レイヤー_2" data-name="レイヤー 2"><g id="レイヤー_1-2" data-name="レイヤー 1"><path class="cls-1" d="M51.17,21.41a28.83,28.83,0,0,1-8.49,20.16A28.64,28.64,0,0,1,22.1,50C8.77,50,0,40.75,0,28.59A28.89,28.89,0,0,1,29.07,0C42.4,0,51.17,9.25,51.17,21.41Zm-16.64,14A19.63,19.63,0,0,0,40.12,22.1c0-7.18-4.35-12.29-12.29-12.29a15.75,15.75,0,0,0-11.19,4.76A19.63,19.63,0,0,0,11.05,27.9c0,7.18,4.35,12.29,12.29,12.29A15.75,15.75,0,0,0,34.53,35.43Z"/><path class="cls-1" d="M56.36,33.63a28.81,28.81,0,0,1,1.17-7.73L64.23.83H74.86l-7,26a18,18,0,0,0-.76,5.25c0,4.77,3,8,8.42,8a10.91,10.91,0,0,0,7.88-3,19.54,19.54,0,0,0,4.7-9L95.45.83h10.63l-7.74,28.8c-1.65,6.21-4.07,11-7.45,14.36-3.94,3.94-9.26,5.94-16.44,5.94C63.26,49.93,56.36,43.92,56.36,33.63Z"/><path class="cls-1" d="M126,33.7H118.1L114,49.17H103.32L116.3.83h17.62c7.18,0,12.08,1.59,15.33,4.83A13.48,13.48,0,0,1,153,15.4a15.89,15.89,0,0,1-4.42,11.46c-1.87,1.87-5.11,4.42-11.19,5.81l8.22,16.5H133.5Zm4.08-9.39c4.14,0,7.66-1,9.73-3.11a6.74,6.74,0,0,0,2-4.9,5.08,5.08,0,0,0-1.52-3.87c-1.31-1.31-3.66-2-7.05-2h-8.91l-3.73,13.88Z"/><path class="cls-1" d="M187.23.83h10.85l7,20.44,18-20.44h12.08l-13,48.34H211.61L220,17.61,201.11,38.26h-.27L193.1,17.82l-8.42,31.35H174.25Z"/><path class="cls-1" d="M246.9.83h10.64l-13,48.34H233.92Z"/><path class="cls-1" d="M255.82,41l8-6.77c3.8,4.15,8,6.36,13.53,6.36,4.29,0,7.39-2,7.39-5,0-2.35-1.72-3.73-8.21-6.36-6.29-2.55-11.88-5.94-11.88-13a14.53,14.53,0,0,1,4.28-10.43c3.52-3.52,9-5.52,14.92-5.52,8.28,0,14,2.83,18.09,7.18l-7.32,7.32C291,11.26,287.72,9.46,283,9.46c-4.49,0-7,2.49-7,4.9,0,2.56,1.93,3.66,8.5,6.36s11.6,6,11.6,13.05a14.59,14.59,0,0,1-4.35,10.57c-3.66,3.66-9.12,5.52-14.85,5.52C267.56,49.86,260.37,46.82,255.82,41Z"/><path class="cls-1" d="M299.74,41l8-6.77c3.8,4.15,8,6.36,13.54,6.36,4.28,0,7.39-2,7.39-5,0-2.35-1.73-3.73-8.22-6.36-6.28-2.55-11.88-5.94-11.88-13a14.57,14.57,0,0,1,4.28-10.43c3.52-3.52,9-5.52,14.92-5.52,8.29,0,14,2.83,18.09,7.18l-7.32,7.32c-3.66-3.38-6.9-5.18-11.6-5.18-4.49,0-7,2.49-7,4.9,0,2.56,1.93,3.66,8.49,6.36s11.6,6,11.6,13.05a14.55,14.55,0,0,1-4.35,10.57C332,48,326.54,49.86,320.8,49.86,311.48,49.86,304.3,46.82,299.74,41Z"/><path class="cls-1" d="M358.65.83h10.64l-13,48.34H345.67Z"/><path class="cls-1" d="M422.33,21.41a28.84,28.84,0,0,1-8.5,20.16A28.62,28.62,0,0,1,393.25,50c-13.33,0-22.1-9.25-22.1-21.41a28.84,28.84,0,0,1,8.5-20.16A28.58,28.58,0,0,1,400.23,0C413.56,0,422.33,9.25,422.33,21.41Zm-16.65,14a19.6,19.6,0,0,0,5.6-13.33c0-7.18-4.35-12.29-12.29-12.29a15.75,15.75,0,0,0-11.19,4.76,19.64,19.64,0,0,0-5.6,13.33c0,7.18,4.36,12.29,12.3,12.29A15.73,15.73,0,0,0,405.68,35.43Z"/><path class="cls-1" d="M436.42.83h9.81l14.08,30.73L468.6.83h10.5l-13,48.34h-9.05l-14.64-31.7-8.5,31.7H423.44Z"/></g></g></svg>